<?xml version="1.0" encoding="UTF-8" standalone="no"?>
<!-- Created with Inkscape (http://www.inkscape.org/) -->

<svg
   xmlns:dc="http://purl.org/dc/elements/1.1/"
   xmlns:cc="http://creativecommons.org/ns#"
   xmlns:rdf="http://www.w3.org/1999/02/22-rdf-syntax-ns#"
   xmlns:svg="http://www.w3.org/2000/svg"
   xmlns="http://www.w3.org/2000/svg"
   xmlns:sodipodi="http://sodipodi.sourceforge.net/DTD/sodipodi-0.dtd"
   xmlns:inkscape="http://www.inkscape.org/namespaces/inkscape"
   width="41.737236mm"
   height="39.628757mm"
   viewBox="0 0 41.737235 39.628757"
   version="1.1"
   id="svg820"
   inkscape:version="0.92.5 (2060ec1f9f, 2020-04-08)"
   sodipodi:docname="corazon_white.svg">
  <defs
     id="defs814" />
  <sodipodi:namedview
     id="base"
     pagecolor="#ffffff"
     bordercolor="#666666"
     borderopacity="1.0"
     inkscape:pageopacity="0.0"
     inkscape:pageshadow="2"
     inkscape:zoom="0.24748737"
     inkscape:cx="3558.2966"
     inkscape:cy="-283.2123"
     inkscape:document-units="mm"
     inkscape:current-layer="layer1"
     showgrid="false"
     inkscape:window-width="1920"
     inkscape:window-height="1017"
     inkscape:window-x="-8"
     inkscape:window-y="-8"
     inkscape:window-maximized="1"
     fit-margin-top="0"
     fit-margin-left="0"
     fit-margin-right="0"
     fit-margin-bottom="0" />
  <metadata
     id="metadata817">
    <rdf:RDF>
      <cc:Work
         rdf:about="">
        <dc:format>image/svg+xml</dc:format>
        <dc:type
           rdf:resource="http://purl.org/dc/dcmitype/StillImage" />
        <dc:title></dc:title>
      </cc:Work>
    </rdf:RDF>
  </metadata>
  <g
     inkscape:label="Capa 1"
     inkscape:groupmode="layer"
     id="layer1"
     transform="translate(-62.313687,-192.38892)">
    <path
       style="fill:#ffffff;fill-opacity:1;stroke-width:0.26458332"
       d="m 80.319099,230.34924 c -4.11763,-3.68788 -11.910144,-11.19042 -13.489535,-12.98755 -4.626369,-5.26418 -5.791512,-11.95328 -3.061832,-17.57804 1.291775,-2.66181 4.278476,-4.98554 7.999902,-6.22411 1.369001,-0.45563 2.364337,-0.58591 4.413475,-0.57769 2.98371,0.012 4.66308,0.51653 7.03739,2.11432 l 1.34137,0.90267 1.28151,-1.08059 c 0.93973,-0.79239 1.84511,-1.24444 3.39472,-1.69496 4.20713,-1.22313 6.23857,-1.12542 9.39065,0.4517 5.978461,2.99128 7.010941,8.36421 3.116971,16.2204 -1.846301,3.72495 -3.887281,6.55472 -7.408121,10.27121 -1.40337,1.48135 -3.59858,3.91419 -4.87826,5.40631 -2.07803,2.42301 -4.54294,4.66877 -6.57164,5.98736 l -0.70374,0.45741 z m 0.25705,-2.79292 c -1.44603,-1.77388 -5.64546,-6.04533 -5.02648,-5.11268 0.58845,0.88666 5.47188,6.10487 5.7132,6.10487 0.0671,0 -0.24188,-0.44648 -0.68672,-0.99219 z m -2.39985,-0.93549 -1.4192,-1.37961 1.27101,1.5278 c 0.69906,0.84029 1.33769,1.46112 1.4192,1.37961 0.0815,-0.0815 -0.49045,-0.76901 -1.27101,-1.5278 z m 9.29701,-7.79603 c 2.82152,-3.74731 5.51467,-7.48555 5.98478,-8.30721 0.94438,-1.65061 1.81018,-4.68399 2.05311,-7.19318 0.13993,-1.44537 0.0727,-1.7968 -0.59025,-3.08631 -0.93204,-1.81285 -1.93816,-2.38026 -4.22159,-2.38084 -1.42959,-2.7e-4 -3.53804,0.55812 -3.53804,0.93715 0,0.0752 0.28581,0.81774 0.63513,1.6501 0.93966,2.23902 1.24429,3.58888 1.26319,5.59735 0.0205,2.17969 -0.2497,3.10806 -1.85274,6.36561 -1.47995,3.00739 -3.34547,5.09585 -4.94037,5.53075 -1.38243,0.37696 -3.52715,0.37005 -4.65687,-0.015 -1.85783,-0.63323 -3.0752,-1.72887 -3.992628,-3.59338 -0.838554,-1.70422 -0.87531,-1.90793 -0.870913,-4.82667 0.0039,-2.61824 0.08592,-3.20059 0.582139,-4.13547 0.69877,-1.3165 2.967262,-3.40998 4.506502,-4.15881 0.61846,-0.30089 1.12448,-0.6351 1.12448,-0.74271 0,-0.30574 -2.27251,-0.57043 -3.71085,-0.43223 -1.699213,0.16328 -2.906858,1.01556 -4.00394,2.82573 -0.731869,1.20758 -0.895027,1.7658 -0.974164,3.33294 -0.126449,2.50407 0.550683,5.94921 1.585817,8.0684 0.68004,1.39221 1.644851,2.52613 5.065327,5.95312 2.3239,2.32834 4.40163,4.50123 4.61718,4.82865 0.21554,0.32742 0.48477,0.59531 0.59828,0.59531 0.1135,0 2.51489,-3.06598 5.33642,-6.81329 z m 2.07905,2.67494 c 1.22921,-1.30069 3.20994,-3.76934 4.322,-5.38665 0.57959,-0.84291 -0.34213,0.17029 -1.8052,1.98438 -0.82154,1.01864 -2.52979,2.91465 -3.79609,4.21334 -1.27319,1.30575 -1.82929,1.9987 -1.24404,1.55018 0.58208,-0.44608 1.71758,-1.50865 2.52333,-2.36125 z m 2.16264,-4.19602 c 0.6878,-0.99206 0.87188,-1.38902 0.49078,-1.05833 -0.75859,0.65823 -4.78444,5.63699 -4.76739,5.89583 0.0218,0.33141 3.13245,-3.18719 4.27661,-4.8375 z m -23.11638,-3.59651 c -0.655828,-1.62824 -1.118976,-2.3085 -0.781706,-1.14815 0.368442,1.26762 1.085217,2.85142 1.22651,2.71013 0.07227,-0.0723 -0.127889,-0.77517 -0.444804,-1.56198 z m 9.58183,-0.40364 c -0.72912,-0.96316 -1.40146,-2.1551 -1.49407,-2.64876 -0.0926,-0.49366 -0.29043,-0.97299 -0.43959,-1.06518 -0.46706,-0.28866 0.0551,1.80552 0.74762,2.99844 0.5107,0.87969 2.06291,2.44914 2.43672,2.46376 0.0413,0.002 -0.52155,-0.78511 -1.25068,-1.74826 z m -2.23262,-1.33427 c -0.47154,-0.8701 -0.54935,-0.70728 -0.15619,0.32681 0.14959,0.39345 0.3375,0.64986 0.41758,0.56978 0.0801,-0.0801 -0.0376,-0.48355 -0.26139,-0.89659 z m 7.21944,0.0234 c 1.58304,-1.33203 1.77271,-4.72844 0.40445,-7.24238 -0.97798,-1.79686 -1.34768,-2.08924 -1.82422,-1.44266 -0.98597,1.33778 -2.06697,3.35458 -2.26234,4.22082 -0.41163,1.8251 1.12909,5.14499 2.38771,5.14499 0.26694,0 0.84942,-0.30634 1.2944,-0.68077 z m 15.28534,-5.43031 c 0.65062,-1.86562 1.19975,-6.06436 0.6368,-4.86912 -0.13708,0.29104 -0.2576,0.83584 -0.26783,1.21067 -0.0102,0.37482 -0.36127,1.90218 -0.78011,3.39411 -0.86077,3.06621 -0.61998,3.22103 0.41114,0.26434 z m -31.103726,-1.68657 c 0.285001,-1.11253 0.804714,-2.67066 1.154917,-3.46254 0.764304,-1.72822 0.666557,-1.85438 -0.239236,-0.30876 -0.610338,1.04146 -1.190271,2.94162 -1.586963,5.1997 -0.27128,1.54421 0.126727,0.69729 0.671282,-1.4284 z m 19.023766,-0.94445 c -0.24649,-0.56598 -0.26562,-0.51297 -0.14712,0.40777 0.0749,0.58209 0.15955,1.47505 0.18807,1.98437 0.0369,0.65881 0.0794,0.54113 0.14712,-0.40777 0.0524,-0.7336 -0.0322,-1.62656 -0.18807,-1.98437 z m -19.145747,-1.96856 c -0.116162,-0.36587 -0.970706,2.22122 -0.953436,2.88649 0.0078,0.30149 0.244099,-0.1662 0.525055,-1.03932 0.280953,-0.87313 0.473726,-1.70436 0.428381,-1.84717 z m 31.042867,-0.11516 c 0.005,-1.19625 -0.15138,-0.96765 -0.33827,0.49337 -0.0974,0.76136 -0.065,1.0416 0.0918,0.79375 0.13331,-0.21072 0.24421,-0.78992 0.24644,-1.28712 z m -13.85161,-1.86875 c -0.94904,-1.43411 -1.12187,-1.35743 -0.22322,0.099 0.39458,0.63951 0.76461,1.11818 0.82229,1.06371 0.0577,-0.0545 -0.21191,-0.57771 -0.59907,-1.16275 z"
       id="path1376"
       inkscape:connector-curvature="0"
       sodipodi:nodetypes="cscccccccsccccccccsccccsccccccssccccccccsccscccsccccccccccccccccccccccccsccccsscscccsccccccccccccccccsccccccc" />
  </g>
</svg>
