<?xml version="1.0" encoding="UTF-8" standalone="no"?>
<!-- Created with Inkscape (http://www.inkscape.org/) -->

<svg
   xmlns:dc="http://purl.org/dc/elements/1.1/"
   xmlns:cc="http://creativecommons.org/ns#"
   xmlns:rdf="http://www.w3.org/1999/02/22-rdf-syntax-ns#"
   xmlns:svg="http://www.w3.org/2000/svg"
   xmlns="http://www.w3.org/2000/svg"
   xmlns:sodipodi="http://sodipodi.sourceforge.net/DTD/sodipodi-0.dtd"
   xmlns:inkscape="http://www.inkscape.org/namespaces/inkscape"
   width="283.36874mm"
   height="20.239092mm"
   viewBox="0 0 283.36874 20.239092"
   version="1.1"
   id="svg831"
   inkscape:version="0.92.5 (2060ec1f9f, 2020-04-08)"
   sodipodi:docname="horiz.svg">
  <defs
     id="defs825" />
  <sodipodi:namedview
     id="base"
     pagecolor="#ffffff"
     bordercolor="#666666"
     borderopacity="1.0"
     inkscape:pageopacity="0.0"
     inkscape:pageshadow="2"
     inkscape:zoom="0.35"
     inkscape:cx="384.07141"
     inkscape:cy="-101.7529"
     inkscape:document-units="mm"
     inkscape:current-layer="layer1"
     showgrid="false"
     inkscape:window-width="1920"
     inkscape:window-height="1017"
     inkscape:window-x="-8"
     inkscape:window-y="-8"
     inkscape:window-maximized="1"
     fit-margin-top="0"
     fit-margin-left="0"
     fit-margin-right="0"
     fit-margin-bottom="0" />
  <metadata
     id="metadata828">
    <rdf:RDF>
      <cc:Work
         rdf:about="">
        <dc:format>image/svg+xml</dc:format>
        <dc:type
           rdf:resource="http://purl.org/dc/dcmitype/StillImage" />
        <dc:title></dc:title>
      </cc:Work>
    </rdf:RDF>
  </metadata>
  <g
     inkscape:label="Capa 1"
     inkscape:groupmode="layer"
     id="layer1"
     transform="translate(-4.21444,-101.67212)">
    <path
       inkscape:connector-curvature="0"
       style="fill:#30b5d4;fill-opacity:1;stroke-width:0.26458299"
       d="m 137.03527,121.87629 c -2.40257,-0.25362 -6.45012,-0.94191 -7.90018,-1.34343 -1.3192,-0.36529 -1.84863,-0.38285 -3.55313,-0.11786 -6.95903,1.0819 -17.92225,1.0536 -26.249811,-0.0678 -2.83766,-0.38211 -5.81667,-0.91406 -6.62003,-1.18212 -1.11316,-0.37144 -1.61671,-0.42227 -2.11666,-0.21365 -1.1591,0.48366 -6.24975,0.29516 -8.54859,-0.31654 -2.71087,-0.72133 -6.06356,-2.10517 -7.71785,-3.18557 -1.58779,-1.03697 -1.56702,-1.03082 3.42415,1.0141 2.17432,0.89083 4.06278,1.58321 4.19657,1.53861 0.1338,-0.0446 -0.23033,-0.40929 -0.80916,-0.81042 -0.57884,-0.40113 -1.3362,-1.0424 -1.68304,-1.42505 l -0.6306,-0.69571 0.9284,0.68999 c 1.12244,0.8342 4.58713,2.46707 5.68618,2.67984 0.69965,0.13545 0.73466,0.11491 0.29529,-0.17324 -1.02822,-0.67433 -2.03248,-1.58833 -1.89559,-1.72522 0.078,-0.078 0.35685,0.0527 0.61963,0.29054 0.66275,0.59978 2.57973,1.24007 3.71269,1.24007 1.28887,0 0.8899,-0.27614 -2.07056,-1.4331 -1.38245,-0.54026 -4.20107,-1.83134 -6.26362,-2.86905 l -3.75007,-1.88676 -3.65826,1.67779 c -2.01204,0.92278 -4.61076,2.02995 -5.77492,2.46038 -2.03057,0.75078 -2.2512,0.77729 -5.42396,0.65171 -2.515356,-0.0995 -3.866078,-0.29719 -5.640908,-0.82535 -2.218963,-0.66033 -2.391662,-0.67475 -3.514977,-0.29337 -0.649748,0.22059 -1.445088,0.39846 -1.767424,0.39527 -0.69563,-0.007 -2.69521,-0.87683 -2.94521,-1.28134 -0.09651,-0.15615 0.335288,-0.0521 0.959546,0.23122 1.320895,0.59951 3.07367,0.67971 3.767463,0.17239 0.441087,-0.32253 0.273272,-0.47704 -1.867659,-1.71961 -1.29376,-0.75088 -2.504089,-1.36532 -2.689622,-1.36542 -0.185534,-1e-4 -1.138034,0.40167 -2.116667,0.89281 -2.398546,1.20376 -6.53488,2.72418 -7.99987,2.94057 -0.656397,0.097 -2.763041,0.0504 -4.681429,-0.10341 l -3.487976,-0.27969 -1.933154,0.82511 c -5.264771,2.24711 -8.728758,3.04179 -11.394193,2.61395 -1.868822,-0.29996 -4.621846,-1.59145 -5.536992,-2.59748 -0.638717,-0.70215 -0.42524,-0.62423 1.080272,0.39432 1.257893,0.85101 4.061332,1.66608 5.677399,1.65063 l 1.361193,-0.013 -1.775863,-0.91159 c -1.519395,-0.77995 -2.325179,-1.50154 -2.325179,-2.08224 0,-0.0793 0.506015,0.20766 1.124479,0.63776 1.075884,0.74821 3.678257,1.60031 4.818089,1.5776 0.462903,-0.009 0.410274,-0.12142 -0.369754,-0.78827 -0.500213,-0.42763 -0.852751,-0.83424 -0.783419,-0.90357 0.06933,-0.0693 0.657191,0.0594 1.306353,0.28616 0.812087,0.28362 1.675532,0.36611 2.767794,0.26441 1.851878,-0.17241 4.531794,-1.02043 3.704166,-1.17212 -0.291041,-0.0534 -3.505729,-0.79588 -7.14375,-1.65009 -7.769645,-1.8243 -8.844294,-2.03571 -12.7,-2.49834 L 4.21444,110.7219 6.198815,110.6948 c 2.589517,-0.0354 5.916624,0.48305 11.773959,1.83473 2.619375,0.60447 5.049885,1.16411 5.401134,1.24365 0.522333,0.11828 0.606897,0.0619 0.46436,-0.30954 -0.153226,-0.3993 -0.09605,-0.39262 0.473373,0.0553 0.943953,0.74252 2.854461,1.20085 4.39041,1.05326 1.673019,-0.16075 1.921182,-0.39164 1.531269,-1.42463 -0.190299,-0.50416 -0.219538,-1.08985 -0.07871,-1.57646 l 0.224086,-0.77427 0.09581,0.7001 c 0.0527,0.38506 0.332544,0.91435 0.621887,1.1762 0.469773,0.42513 0.659313,0.44058 1.771018,0.14435 1.219787,-0.32503 5.643364,-2.42991 6.381171,-3.03637 0.303569,-0.24952 0.204234,-0.3379 -0.529167,-0.4708 -0.800359,-0.14503 -0.7508,-0.16756 0.436396,-0.19844 1.224912,-0.0318 1.665533,-0.25075 5.159375,-2.56309 4.284453,-2.8356 6.245529,-3.85057 8.620773,-4.46176 2.813336,-0.72391 5.213094,-0.41925 8.326673,1.0571 l 1.48569,0.70447 2.879927,-0.6786 c 4.58465,-1.08028 6.97118,-1.33095 10.93763,-1.14881 8.69681,0.39935 13.61183,2.30479 21.87313,8.47971 l 3.851841,2.87906 1.81275,-0.29937 c 3.14367,-0.51917 6.69061,-0.38159 9.48871,0.36803 1.36742,0.36634 2.51584,0.63393 2.55204,0.59465 0.0362,-0.0393 -0.98102,-1.19853 -2.26049,-2.57611 l -2.32632,-2.50468 -2.19946,0.83962 c -1.20971,0.4618 -2.24881,0.79028 -2.30913,0.72996 -0.12677,-0.12677 2.6689,-1.39532 3.57775,-1.62343 0.33643,-0.0844 0.61169,-0.23522 0.61169,-0.33506 0,-0.42229 -2.71647,-2.20292 -4.52565,-2.96655 -2.53606,-1.07042 -5.05952,-1.26631 -8.161781,-0.63357 -1.22687,0.25023 -2.41621,0.50958 -2.64298,0.57634 -0.22676,0.0667 -0.11155,-0.0546 0.25604,-0.26975 1.16695,-0.6829 3.836311,-1.23018 5.984431,-1.22693 3.41528,0.005 6.08372,0.93265 8.59347,2.98691 l 1.4879,1.21786 1.42252,-0.54151 c 3.90854,-1.4879 10.07911,-2.02195 13.20495,-1.14287 0.7957,0.22377 1.9825,0.47785 2.63735,0.56462 0.65484,0.0868 2.38125,0.72767 3.83646,1.42424 1.4552,0.69656 3.50787,1.45568 4.56148,1.68692 4.85916,1.06645 12.14984,1.01538 16.64997,-0.11664 1.13954,-0.28665 3.14344,-1.04345 4.45313,-1.68177 1.30969,-0.63832 2.91703,-1.23032 3.57188,-1.31555 0.65484,-0.0852 1.84165,-0.33805 2.63734,-0.56182 3.0135,-0.84749 8.4931,-0.41845 12.70731,0.99495 l 1.93969,0.65055 1.4745,-1.201 c 2.50374,-2.03932 5.19013,-2.96175 8.62553,-2.96175 2.1667,0 4.04732,0.3813 5.68854,1.15336 0.50933,0.23959 0.74051,0.38684 0.51374,0.32722 -4.64301,-1.22081 -7.82355,-1.21264 -10.7563,0.0276 -2.65176,1.12142 -5.47489,3.24803 -4.31185,3.24803 0.38955,0 4.0003,1.64647 3.8783,1.76847 -0.0576,0.0576 -1.01592,-0.25718 -2.12955,-0.69956 -1.11363,-0.44238 -2.17051,-0.79287 -2.34862,-0.77887 -0.17811,0.014 -1.33102,1.16549 -2.56203,2.55888 -1.73213,1.96062 -2.09106,2.49237 -1.5875,2.35186 4.51752,-1.26055 4.80541,-1.29998 8.31488,-1.13863 1.89657,0.0872 3.81489,0.23144 4.26294,0.32054 0.72653,0.14448 1.21292,-0.13388 4.49791,-2.57419 4.45226,-3.30742 5.29662,-3.863 7.74445,-5.09571 4.45752,-2.24477 8.45904,-3.22986 14.20448,-3.49686 4.11576,-0.19126 6.45717,0.0533 11.03638,1.15299 l 2.84369,0.68287 1.78652,-0.81235 c 5.49401,-2.49818 8.74562,-1.79215 16.90908,3.67154 3.24357,2.17087 3.62498,2.35689 4.91264,2.39595 0.95124,0.0289 1.12207,0.0763 0.53616,0.14905 -0.47295,0.0587 -0.8599,0.19866 -0.8599,0.31103 0,0.33056 5.86086,3.15242 6.95589,3.34909 1.20263,0.21599 2.03768,-0.37439 2.04399,-1.44513 0.003,-0.54046 0.0587,-0.60212 0.26054,-0.28972 0.39577,0.61241 0.31141,1.76746 -0.16379,2.24266 -0.23561,0.2356 -0.38444,0.46611 -0.33073,0.51222 1.10392,0.94802 3.65007,0.92381 5.58685,-0.0531 0.98655,-0.49763 1.41523,-0.61409 1.31688,-0.35775 -0.10985,0.28623 0.0119,0.34475 0.49279,0.23703 0.35123,-0.0787 2.78175,-0.64364 5.40112,-1.25549 5.8611,-1.36906 8.92834,-1.85349 11.50938,-1.81777 l 1.98437,0.0275 -2.82501,0.34331 c -3.53528,0.42963 -5.71037,0.86522 -13.18228,2.63994 -3.27422,0.77769 -6.19125,1.45681 -6.48229,1.50916 -0.82986,0.14926 1.8578,0.99841 3.70416,1.17031 1.09227,0.1017 1.9557,0.0192 2.76781,-0.26441 0.64916,-0.22672 1.21974,-0.37278 1.26794,-0.32457 0.0482,0.0482 -0.27456,0.39244 -0.71728,0.76495 -0.4427,0.37252 -0.80491,0.74452 -0.80491,0.82668 0,0.57986 3.84507,-0.47898 5.22552,-1.43898 0.61846,-0.4301 1.12069,-0.69515 1.11606,-0.58901 -0.0217,0.49824 -0.87683,1.22613 -2.41284,2.05386 l -1.6798,0.90523 1.45522,4.2e-4 c 1.73313,5.1e-4 4.65712,-0.96633 5.98464,-1.97888 0.5111,-0.38984 0.98052,-0.65756 1.04315,-0.59493 0.22693,0.22694 -1.11086,1.23245 -2.72175,2.04573 -2.10529,1.06288 -4.30336,1.42865 -6.48665,1.07941 -1.81113,-0.28971 -6.07087,-1.67668 -8.46714,-2.75691 -1.51163,-0.68144 -1.53804,-0.68356 -5.02425,-0.40401 -1.92755,0.15457 -4.01299,0.2048 -4.6343,0.11162 -1.64944,-0.24735 -4.42986,-1.24342 -7.49391,-2.68467 l -2.69212,-1.26629 -1.9467,1.0425 c -2.33858,1.25236 -3.20426,1.87751 -2.95085,2.13092 0.48823,0.48823 2.7953,0.42394 4.00607,-0.11164 0.68144,-0.30144 1.16079,-0.42154 1.06521,-0.2669 -0.24863,0.40229 -2.25017,1.27171 -2.9435,1.27858 -0.32234,0.003 -1.12309,-0.17651 -1.77944,-0.39934 -1.13844,-0.38652 -1.30022,-0.37323 -3.51497,0.2886 -1.72554,0.51564 -3.15285,0.7307 -5.55917,0.83762 -3.05205,0.13561 -3.35526,0.10212 -5.29167,-0.58443 -1.12976,-0.40056 -3.76346,-1.50388 -5.85268,-2.45183 l -3.79858,-1.72355 -4.66809,2.25516 c -2.56745,1.24035 -5.38246,2.52482 -6.25559,2.85439 -2.02673,0.765 -2.33575,1.04587 -1.15073,1.04587 1.14451,0 2.48654,-0.43474 3.48107,-1.12767 0.40855,-0.28466 0.80332,-0.45706 0.87727,-0.38313 0.17395,0.17395 -1.57439,1.5108 -1.97581,1.5108 -0.16817,0 -0.30576,0.10828 -0.30576,0.24063 0,0.64427 4.40179,-1.13591 6.35,-2.56807 0.85862,-0.63118 0.88752,-0.63642 0.39688,-0.0719 -0.29104,0.33486 -1.05873,0.97409 -1.70597,1.42051 -0.64723,0.44641 -1.05544,0.85211 -0.90711,0.90155 0.14832,0.0494 2.15596,-0.68713 4.46142,-1.63682 2.30546,-0.9497 4.23022,-1.68824 4.27726,-1.64121 0.15078,0.15078 -3.30469,1.97896 -5.09187,2.69394 -3.20779,1.28332 -5.58545,1.77329 -8.70665,1.79421 -1.60073,0.0107 -3.20562,-0.10368 -3.56643,-0.25424 -0.49826,-0.20791 -1.00729,-0.15877 -2.11667,0.20434 -0.80336,0.26294 -3.8419,0.81145 -6.75232,1.21892 -4.8744,0.68243 -5.928,0.74007 -13.36145,0.73099 -6.40947,-0.008 -8.76369,-0.11032 -11.44238,-0.49813 -3.1402,-0.45463 -3.47746,-0.45903 -4.89479,-0.0639 -2.92291,0.81487 -6.99044,1.30309 -10.38575,1.24657 -7.3539,-0.12241 -9.5033,-0.11563 -11.90625,0.0375 -1.38245,0.0881 -2.98979,0.10994 -3.57188,0.0485 z m 7.24831,-1.088 0.89831,-0.21224 -2.04063,-1.5359 -2.04063,-1.53591 -3.35559,0.80025 c -1.84558,0.44013 -4.33787,0.93895 -5.53841,1.10849 -1.20055,0.16954 -2.18282,0.3495 -2.18282,0.39991 0,0.1657 2.21032,0.70467 4.36563,1.06451 2.1995,0.36722 8.19112,0.31326 9.89414,-0.0891 z m 14.97669,-0.2055 c 3.06439,-0.63927 3.15573,-0.80785 0.631,-1.16459 -1.22017,-0.17241 -3.73832,-0.67595 -5.59589,-1.11899 l -3.37739,-0.80551 -2.00723,1.53741 c -1.10398,0.84558 -1.90587,1.56948 -1.78198,1.60867 2.16035,0.68341 8.73027,0.65255 12.13149,-0.057 z m -41.97292,-0.0363 c 1.33434,-0.0947 2.37776,-0.22052 2.31871,-0.27957 -0.059,-0.0591 -1.32452,-0.27817 -2.81217,-0.48694 -1.48764,-0.20877 -3.5208,-0.62259 -4.51814,-0.91961 -2.67744,-0.79738 -7.23811,-2.73684 -9.01553,-3.83393 l -1.55677,-0.96088 -3.368461,1.56357 c -1.85266,0.85997 -3.93954,1.7799 -4.63752,2.04429 -0.69798,0.2644 -1.17423,0.57261 -1.05833,0.68493 0.11589,0.11231 2.05618,0.50468 4.31176,0.87193 7.230401,1.17724 15.109781,1.68721 20.336451,1.31621 z m 71.73855,-0.4982 c 4.06891,-0.45123 8.11839,-1.0719 9.62719,-1.47556 l 1.02824,-0.27509 -3.54178,-1.59129 c -1.94798,-0.87521 -4.04623,-1.82363 -4.66277,-2.1076 l -1.121,-0.51632 -1.73456,1.04617 c -3.29267,1.9859 -9.5597,4.18778 -13.22136,4.64524 -0.72761,0.0909 -1.79917,0.25058 -2.38125,0.35485 -1.00699,0.18038 -0.96848,0.19797 0.79375,0.36247 2.73334,0.25516 11.12089,0.011 15.21354,-0.44287 z m -41.14271,-1.32011 c 0.87313,-0.65517 1.62063,-1.28909 1.66112,-1.40872 0.0405,-0.11963 -0.74367,-0.45592 -1.74259,-0.74732 -1.81374,-0.52909 -1.81864,-0.5291 -3.57936,-0.004 -0.96972,0.28904 -1.76313,0.61985 -1.76313,0.73514 0,0.2595 3.20747,2.60447 3.57188,2.61138 0.14552,0.003 0.97896,-0.53103 1.85208,-1.18619 z m -23.68021,0.6448 1.19063,-0.0286 -1.05834,-0.42654 c -0.58208,-0.2346 -2.54661,-1.15571 -4.36562,-2.04691 l -3.30729,-1.62037 -1.17765,0.74971 c -0.71612,0.45589 -1.49379,0.73311 -1.98437,0.70736 l -0.80673,-0.0423 0.82028,-0.10375 c 0.45116,-0.0571 1.22428,-0.44103 1.71805,-0.85324 l 0.89776,-0.74949 -0.99084,-0.41399 c -0.54496,-0.2277 -1.67526,-0.54352 -2.51179,-0.70183 -2.20035,-0.4164 -7.42972,-0.62023 -8.66471,-0.33772 l -1.05834,0.24209 1.71979,1.10498 c 2.21533,1.42337 6.62075,3.14089 9.68213,3.77472 2.97544,0.61604 6.55025,1.02045 7.78037,0.88017 0.50933,-0.0581 1.46183,-0.11847 2.11667,-0.13422 z m 51.56229,-0.41078 c 4.06737,-0.59779 8.88588,-2.31251 11.80542,-4.20108 l 1.5875,-1.02691 -1.05833,-0.23553 c -1.24338,-0.27672 -6.48346,-0.0685 -8.66472,0.34428 -0.83652,0.15831 -1.95581,0.46952 -2.4873,0.69159 l -0.96634,0.40377 0.6793,0.67929 c 0.37361,0.37362 1.13571,0.76754 1.69355,0.87539 0.94161,0.18205 0.95647,0.19828 0.20752,0.22652 -0.47511,0.0179 -1.29082,-0.27775 -1.98437,-0.71927 l -1.17764,-0.74971 -3.40415,1.67433 c -1.87228,0.92088 -3.89634,1.82379 -4.49792,2.00647 l -1.09377,0.33215 1.7198,0.15529 c 2.09556,0.18923 4.03641,0.0733 7.64145,-0.45658 z m -40.08031,-0.78025 c 2.45879,-0.49068 4.54238,-0.96642 4.63021,-1.05721 0.194,-0.20054 -2.6892,-2.88161 -4.85632,-4.51588 -1.3623,-1.02733 -1.69619,-1.16634 -2.45813,-1.0234 -2.38793,0.44798 -4.02031,1.70664 -4.56747,3.52179 l -0.21603,0.71666 -0.0228,-0.8396 c -0.0313,-1.15578 0.96675,-2.25978 2.92972,-3.24068 l 1.60834,-0.8037 -0.75904,-0.30404 c -1.13131,-0.45314 -4.51437,-0.59617 -6.2873,-0.26581 -1.99891,0.37247 -4.01595,1.30141 -6.18217,2.8472 l -1.7214,1.22836 0.63049,0.47871 c 1.43087,1.08641 4.56697,2.70464 6.88761,3.55402 2.95899,1.08303 3.55741,1.06595 10.38424,-0.29642 z m 31.84133,-0.0441 c 2.75847,-1.08286 6.78879,-3.38381 6.56403,-3.74747 -0.29859,-0.48314 -4.09459,-2.82922 -5.55581,-3.43373 -1.38477,-0.57288 -2.01279,-0.6637 -4.64403,-0.67161 -1.89035,-0.006 -3.33225,0.11739 -3.80723,0.32497 l -0.76453,0.33411 1.3731,0.68425 c 2.04968,1.0214 3.19923,2.2086 3.19608,3.30077 -0.003,0.89311 -0.004,0.89228 -0.62374,-0.43912 -0.69723,-1.4973 -1.3295,-2.00152 -3.33054,-2.65602 -1.80261,-0.58961 -2.21466,-0.39257 -5.78369,2.76567 -3.21614,2.84596 -3.47418,2.4967 2.72909,3.69381 6.87078,1.32592 6.87325,1.32588 10.64727,-0.15563 z m -76.791941,-0.59599 c 0.0906,-0.14655 -0.0512,-0.33968 -0.31512,-0.42919 -1.42125,-0.48207 -4.09015,-1.81876 -4.47043,-2.23896 -0.32133,-0.35507 -0.39109,-0.73306 -0.26214,-1.42044 0.0966,-0.51514 0.29741,-0.93662 0.44614,-0.93662 0.14873,0 0.19673,0.23217 0.10667,0.51594 -0.31687,0.99836 0.53914,2.04729 2.17485,2.66501 2.8095,1.06099 3.90552,0.98422 8.668,-0.60716 l 4.232461,-1.41427 -1.853761,-1.1013 c -3.43488,-2.04062 -6.79319,-2.84499 -11.77054,-2.81923 -1.81901,0.009 -4.17049,0.169 -5.22552,0.35464 -2.15424,0.37904 -2.23064,0.50234 -1.41873,2.28987 0.60692,1.33622 2.08538,2.3195 6.15705,4.09489 3.27848,1.42952 3.29205,1.43355 3.53107,1.04682 z M 205.5047,116.1936 c 3.77336,-1.69565 5.04269,-2.59106 5.58128,-3.93716 0.66775,-1.66887 0.60757,-1.77147 -1.22414,-2.08696 -7.01252,-1.20784 -13.43325,-0.1974 -18.01573,2.83514 l -1.04261,0.68997 4.20443,1.38899 c 2.31243,0.76395 4.63837,1.39188 5.16874,1.3954 0.53038,0.004 1.74191,-0.23376 2.69229,-0.5273 2.01535,-0.62248 3.23212,-1.77551 2.97111,-2.81547 -0.0855,-0.34076 -0.049,-0.61956 0.0811,-0.61956 0.37575,0 0.59018,1.5795 0.29045,2.13954 -0.28733,0.53689 -2.59501,1.79413 -4.31889,2.35298 -0.74099,0.24021 -0.92373,0.39478 -0.66146,0.55949 0.4635,0.29107 0.8238,0.17514 4.27348,-1.37506 z m -61.11177,-0.49967 c 0.18642,-0.1673 -0.76839,-0.60317 -6.03474,-2.75487 -0.99035,-0.40463 -0.91555,-0.29802 1.16439,1.6596 l 2.22273,2.092 1.21686,-0.40238 c 0.66927,-0.22131 1.31311,-0.48877 1.43076,-0.59435 z m 10.23714,-3.09147 c 0,-0.0511 -0.44649,0.0971 -0.99219,0.3293 -0.54571,0.23222 -2.15544,0.90611 -3.5772,1.49754 -1.42175,0.59142 -2.51466,1.14716 -2.42868,1.23498 0.086,0.0878 0.71345,0.34905 1.39438,0.58052 l 1.23806,0.42087 2.18281,-1.98515 c 1.20055,-1.09182 2.18282,-2.02695 2.18282,-2.07806 z m -92.765138,2.97757 c -0.21016,-0.54766 0.31896,-1.38629 0.98445,-1.56032 0.4321,-0.113 0.50017,-0.0751 0.27296,0.15216 -0.46057,0.46058 -0.36192,1.20488 0.19953,1.50536 0.757887,0.40561 3.520457,-0.43373 7.888357,-2.39669 2.0682,-0.92946 3.76484,-1.76042 3.77031,-1.84657 0.0176,-0.27717 -3.57275,-1.57268 -5.19409,-1.8742 -0.87573,-0.16286 -2.20858,-0.21087 -3.01205,-0.1085 -1.33548,0.17015 -8.549943,2.96052 -8.757403,3.38714 -0.118803,0.24429 3.244228,3.09074 3.669876,3.10615 0.17733,0.006 0.25746,-0.15762 0.17806,-0.36453 z m 166.996338,-0.005 c 0.44749,-0.33176 0.46867,-0.45425 0.16453,-0.95181 -0.51617,-0.84442 -0.17808,-0.93841 0.59494,-0.16539 0.40319,0.40319 0.61125,0.84049 0.5169,1.08639 -0.30314,0.78995 0.49467,0.40377 2.29268,-1.10979 l 1.80727,-1.52135 -0.66323,-0.34851 c -2.04481,-1.07448 -6.55712,-2.75915 -8.09968,-3.02401 -1.39277,-0.23914 -2.14065,-0.23247 -3.41371,0.0305 -1.65575,0.34199 -4.99113,1.59112 -4.98694,1.86765 0.004,0.2682 8.72006,4.01296 9.86839,4.23988 0.61024,0.12058 1.17606,0.23229 1.25739,0.24823 0.0813,0.0159 0.37898,-0.14235 0.66146,-0.35177 z M 59.194776,115.32989 c -0.116372,-0.19895 -0.59676,-0.79638 -1.067531,-1.32763 -0.759616,-0.8572 -0.915945,-0.92843 -1.389062,-0.63297 -0.293214,0.18312 -0.533117,0.42095 -0.533117,0.52853 0,0.20879 2.634274,1.78713 2.98971,1.7913 0.116371,10e-4 0.116371,-0.16029 0,-0.35923 z m 175.241104,-0.45145 c 0.7817,-0.44724 1.42127,-0.90438 1.42127,-1.01587 0,-0.11148 -0.26985,-0.32564 -0.59967,-0.47592 -0.52703,-0.24013 -0.71931,-0.13568 -1.5875,0.86235 -1.49924,1.72347 -1.35437,1.84253 0.7659,0.62944 z M 41.785274,113.73405 c 1.74625,-0.70536 3.591719,-1.49581 4.101042,-1.75654 l 0.926042,-0.47407 -1.322917,-0.57252 c -0.727604,-0.3149 -2.007304,-0.74861 -2.843779,-0.9638 l -1.520862,-0.39127 -2.58018,1.43899 c -1.419098,0.79145 -3.755199,1.95261 -5.191336,2.58036 -3.209452,1.40288 -2.990099,1.58255 1.817407,1.48857 3.435014,-0.0671 3.443801,-0.0689 6.614583,-1.34972 z M 147.811,114.53314 c 0.91283,-0.34611 2.55266,-1.11834 3.64407,-1.71607 l 1.98437,-1.08677 -7.40833,0.001 -7.40834,10e-4 1.45521,0.82301 c 1.66451,0.94138 5.26504,2.56319 5.74865,2.58939 0.17858,0.01 1.07155,-0.26559 1.98437,-0.6117 z m 113.0146,0.39777 c 0.37809,-0.1486 -0.12016,-0.4616 -2.11667,-1.3297 -1.43614,-0.62445 -3.78716,-1.79409 -5.2245,-2.59921 l -2.61335,-1.46385 -1.49879,0.4167 c -0.82433,0.22919 -2.08911,0.67138 -2.81061,0.98265 l -1.31182,0.56594 0.96123,0.49702 c 1.23483,0.63849 4.70856,2.04039 6.57939,2.65526 1.51396,0.49757 6.99191,0.68518 8.03512,0.27519 z M 54.103655,113.33886 c -0.137919,-0.2577 -0.916276,-1.03712 -1.729684,-1.73203 -1.417857,-1.21131 -1.512242,-1.24969 -2.285815,-0.92926 l -0.806892,0.33422 2.337422,1.51256 c 2.321144,1.50202 2.96604,1.7134 2.484969,0.81451 z m 67.065535,-2.62132 c -0.0582,-0.0582 -0.53843,0.037 -1.06725,0.21157 -0.52882,0.17452 -1.02325,0.25557 -1.09872,0.18009 -0.23308,-0.23307 1.01736,-0.7962 2.81851,-1.26929 0.96728,-0.25407 1.43036,-0.46543 1.05833,-0.48306 -0.63527,-0.0301 -0.64051,-0.0441 -0.13229,-0.35402 0.35358,-0.21561 1.64937,-0.3094 3.90507,-0.28267 3.27909,0.0389 3.35876,0.0265 2.77813,-0.43012 -1.77164,-1.39335 -7.03201,-1.99356 -10.95202,-1.24962 -2.59896,0.49323 -5.91764,1.45767 -5.91764,1.71972 0,0.10443 1.07896,1.34708 2.39768,2.76146 l 2.39767,2.57159 1.95915,-1.63495 c 1.07753,-0.89921 1.91155,-1.68253 1.85338,-1.7407 z m 58.32638,-1.91917 c 0.009,-0.23522 -3.37596,-1.24292 -5.79046,-1.72404 -4.01718,-0.80047 -9.54785,-0.18629 -11.1601,1.23933 l -0.6389,0.56495 2.44353,-0.18494 c 1.66278,-0.12584 2.93086,-0.0761 3.96875,0.15567 1.29358,0.28888 1.40467,0.35621 0.73147,0.44337 -0.64315,0.0833 -0.41841,0.19868 1.18445,0.60828 1.08802,0.27803 2.15958,0.69541 2.38125,0.9275 0.43509,0.45555 0.53233,0.45986 -1.38289,-0.0614 -0.73642,-0.20044 -0.59637,-0.0427 1.67916,1.89086 l 1.69428,1.43968 2.44206,-2.57645 c 1.34314,-1.41704 2.44447,-2.6423 2.4474,-2.7228 z m 61.47978,3.37479 1.81091,-1.15917 -0.82908,-0.34341 c -0.75597,-0.31314 -0.89233,-0.28821 -1.54633,0.28261 -1.89461,1.65368 -2.70162,2.49441 -2.70162,2.81453 0,0.41728 0.51887,0.16396 3.26612,-1.59456 z m -184.545102,-0.11595 -0.622057,-0.68274 0.812136,0.58552 0.812136,0.58551 2.435341,-1.18531 c 1.339437,-0.65191 3.748158,-1.62275 5.352705,-2.15741 1.60455,-0.53466 2.8762,-1.09562 2.82587,-1.24659 -0.0503,-0.15096 -1.27901,-0.90904 -2.73042,-1.68461 l -2.638917,-1.41013 -4.360469,1.93045 c -5.467969,2.42076 -6.900121,3.13414 -6.811711,3.39303 0.0385,0.11273 0.957607,0.91204 2.042467,1.77623 1.944174,1.54873 1.983465,1.56559 2.738723,1.17502 l 0.766252,-0.39624 z m 184.189402,-1.91565 c 0,-0.22276 -0.98381,-0.70145 -6.60695,-3.21475 l -4.62257,-2.06609 -2.63577,1.39361 c -1.44968,0.76649 -2.67808,1.52051 -2.72978,1.67561 -0.0517,0.1551 1.19049,0.7236 2.76043,1.26334 1.56994,0.53973 3.96896,1.50699 5.33117,2.14945 l 2.47675,1.16812 0.83055,-0.57327 0.83054,-0.57327 -0.6209,0.68658 -0.6209,0.68659 0.74029,0.38787 c 0.72283,0.37873 0.78893,0.35017 2.80371,-1.21157 1.13489,-0.8797 2.06343,-1.6772 2.06343,-1.77222 z m -160.892521,1.78359 c -0.32809,-0.47506 -0.61572,-0.89399 -0.63917,-0.93095 -0.0234,-0.037 -0.50849,0.0945 -1.07787,0.29207 l -1.03523,0.35927 1.5875,0.80691 c 0.87312,0.44379 1.6266,0.70105 1.6744,0.57168 0.0478,-0.12938 -0.18153,-0.62392 -0.50963,-1.09898 z m 134.287921,-0.65258 c -0.54899,-0.19006 -1.01735,-0.31533 -1.0408,-0.27837 -0.0234,0.037 -0.30173,0.44277 -0.61841,0.90179 -0.93555,1.35609 -0.6786,1.50021 1.0408,0.58378 l 1.61657,-0.86163 z M 47.473816,110.71744 c 0,-0.11642 -0.142875,-0.35454 -0.3175,-0.52917 -0.434195,-0.43419 -0.0773,-0.39842 0.859806,0.0862 0.703474,0.36378 0.861435,0.36188 1.598538,-0.0193 0.774547,-0.40053 0.792089,-0.44322 0.330729,-0.80484 -0.443272,-0.34745 -0.426106,-0.35586 0.190424,-0.0933 0.601427,0.25613 1.27913,-10e-4 6.027073,-2.28977 2.942201,-1.41809 5.256647,-2.66243 5.143214,-2.7652 -0.514974,-0.46656 -3.813069,-1.38671 -5.405702,-1.50817 -3.119675,-0.23791 -6.625487,1.13659 -11.560048,4.53228 l -2.736593,1.88317 0.88451,0.21992 c 0.486479,0.12096 1.717945,0.49028 2.736591,0.82072 2.253691,0.73108 2.248958,0.7301 2.248958,0.46749 z m 29.924583,-0.0922 c 0.49465,-0.16712 0.94719,-0.34392 1.00563,-0.39288 0.19459,-0.16304 -1.74678,-2.85786 -2.96368,-4.11387 -1.54778,-1.59752 -2.64859,-2.16741 -3.8196,-1.97738 -0.77066,0.12506 -0.85883,0.0896 -0.58811,-0.23661 0.74186,-0.89388 2.35662,-0.39051 4.15628,1.29566 0.91083,0.85339 1.17115,0.72249 0.40441,-0.20334 -0.25052,-0.30251 0.0814,-0.044 0.73761,0.57447 1.37208,1.29316 1.82655,1.44515 1.1867,0.39688 l -0.44411,-0.72761 0.61212,0.67012 c 0.33667,0.36856 0.82462,0.96388 1.08434,1.32292 l 0.47222,0.6528 -0.10166,-0.90074 c -0.0911,-0.80697 -0.0648,-0.85033 0.25245,-0.41647 0.19476,0.26635 0.43065,1.06131 0.52421,1.76657 0.0936,0.70527 0.26134,1.33869 0.37285,1.40761 0.1115,0.0689 1.64991,-0.12049 3.41868,-0.4209 2.85088,-0.4842 3.58228,-0.51488 6.44311,-0.27029 1.77495,0.15176 3.64389,0.34723 4.15321,0.43439 l 0.92605,0.15846 -0.64876,-0.56813 c -0.7538,-0.66012 -3.42291,-2.24374 -5.70124,-3.38264 -0.87313,-0.43645 -3.07579,-1.18637 -4.8948,-1.66646 -2.96421,-0.78236 -3.76937,-0.8842 -7.76173,-0.98168 -4.45545,-0.10878 -6.98727,0.11045 -10.5865,0.91671 -0.99647,0.22322 -1.710837,0.50289 -1.5875,0.62149 0.12335,0.1186 2.66506,1.48369 5.64823,3.03353 2.98318,1.54984 5.53707,2.9289 5.67532,3.06457 0.33424,0.32804 0.93425,0.31109 2.02427,-0.0572 z m 144.208371,-2.62591 c 7.17368,-3.74156 6.8951,-3.542 5.45186,-3.90542 -4.5519,-1.14618 -12.40714,-1.47708 -16.28191,-0.68588 -4.49523,0.9179 -6.76627,1.71657 -9.84457,3.4621 -1.67349,0.94894 -3.28083,1.96759 -3.57188,2.26368 l -0.52916,0.53833 0.92604,-0.17202 c 0.50932,-0.0946 2.37827,-0.29618 4.15321,-0.44794 2.86512,-0.24496 3.59042,-0.21422 6.46503,0.27401 3.49225,0.59313 3.64992,0.55971 3.67215,-0.77833 0.006,-0.36381 0.23479,-1.13771 0.50832,-1.7198 l 0.49733,-1.05833 -0.11979,1.05833 -0.11979,1.05834 0.47541,-0.6471 c 0.26148,-0.3559 0.65401,-0.83467 0.8723,-1.06393 0.21828,-0.22926 0.30757,-0.30121 0.19843,-0.15988 -0.10914,0.14132 -0.19843,0.37749 -0.19843,0.52482 0,0.14732 0.59531,-0.3185 1.32291,-1.03516 1.28557,-1.26623 1.90155,-1.44378 0.74763,-0.21549 -0.31641,0.3368 -0.45882,0.61236 -0.31648,0.61236 0.14234,0 0.65497,-0.40875 1.13919,-0.90833 0.48421,-0.49958 1.20914,-1.0445 1.61096,-1.21094 0.83862,-0.34737 2.15856,-0.26192 2.29292,0.14844 0.056,0.17117 -0.25906,0.23726 -0.81932,0.17185 -1.52803,-0.17839 -3.58156,1.53434 -5.79943,4.83696 -0.38915,0.57949 -0.70755,1.13511 -0.70755,1.23473 0,0.216 1.26812,0.70394 1.90629,0.73349 0.24809,0.0115 2.97884,-1.29751 6.06833,-2.90889 z m 24.43684,2.42997 c 0.7276,-0.27474 2.01469,-0.6418 2.86019,-0.81568 l 1.53728,-0.31614 -2.59561,-1.85256 c -4.39765,-3.13873 -8.16055,-4.7179 -11.24194,-4.7179 -1.45726,0 -5.30028,1.02518 -5.84699,1.55976 -0.28509,0.27877 10.34399,5.39455 10.82487,5.21002 0.21375,-0.082 0.31903,-0.0365 0.23396,0.10115 -0.0851,0.13766 0.20639,0.43701 0.64771,0.66522 0.72155,0.37313 0.88106,0.37427 1.58301,0.0113 0.93711,-0.48459 1.294,-0.52036 0.85981,-0.0862 -0.27892,0.27893 -0.43575,0.74108 -0.25135,0.7407 0.0364,-7e-5 0.66145,-0.22492 1.38906,-0.49967 z"
       id="path4021"
       inkscape:export-filename="C:\Users\zupei\path4021.png"
       inkscape:export-xdpi="300"
       inkscape:export-ydpi="300" />
  </g>
</svg>
