<?xml version="1.0" encoding="UTF-8" standalone="no"?>
<!-- Created with Inkscape (http://www.inkscape.org/) -->

<svg
   width="112.68324mm"
   height="87.583649mm"
   viewBox="0 0 112.68324 87.583649"
   version="1.1"
   id="svg5"
   inkscape:version="1.1 (c68e22c387, 2021-05-23)"
   sodipodi:docname="navbar-logo.svg"
   xmlns:inkscape="http://www.inkscape.org/namespaces/inkscape"
   xmlns:sodipodi="http://sodipodi.sourceforge.net/DTD/sodipodi-0.dtd"
   xmlns="http://www.w3.org/2000/svg"
   xmlns:svg="http://www.w3.org/2000/svg">
  <sodipodi:namedview
     id="namedview7"
     pagecolor="#ffffff"
     bordercolor="#666666"
     borderopacity="1.0"
     inkscape:pageshadow="2"
     inkscape:pageopacity="0.0"
     inkscape:pagecheckerboard="0"
     inkscape:document-units="mm"
     showgrid="false"
     inkscape:zoom="0.71446409"
     inkscape:cx="509.47277"
     inkscape:cy="186.85334"
     inkscape:window-width="1920"
     inkscape:window-height="991"
     inkscape:window-x="-9"
     inkscape:window-y="-9"
     inkscape:window-maximized="1"
     inkscape:current-layer="layer1" />
  <defs
     id="defs2" />
  <g
     inkscape:label="Capa 1"
     inkscape:groupmode="layer"
     id="layer1"
     transform="translate(-58.977957,-43.206048)">
    <path
       style="fill:#ffffff;stroke-width:0.264583"
       d="m 106.5058,122.12285 -8.663856,-8.66684 2.181096,-2.1811 2.18109,-2.1811 6.55101,6.54707 6.551,6.54708 16.40087,-16.39927 16.40085,-16.399257 2.11938,2.10695 c 1.16566,1.15882 2.11938,2.2471 2.11938,2.4184 0,0.30954 -36.70369,36.874917 -37.0144,36.874917 -0.0894,0 -4.0613,-3.90008 -8.82642,-8.66685 z m -34.270896,1.00556 c -5.15306,-1.39438 -9.27345,-4.75466 -11.54675,-9.41669 -2.98055,-6.11243 -2.05506,-12.4298 2.69701,-18.409787 1.44031,-1.81248 4.97704,-5.25807 5.39715,-5.25807 0.10101,0 1.02464,1.02576 2.05251,2.27945 l 1.86885,2.27946 -2.25188,2.21667 c -5.7126,5.623277 -6.7335,10.510857 -3.27674,15.687407 1.1714,1.75417 2.1175,2.55445 4.37779,3.70305 3.74002,1.90054 7.5365,1.4168 11.56769,-1.47394 0.74826,-0.53657 6.66292,-6.25227 13.1437,-12.70155 6.480766,-6.449277 11.898106,-11.724047 12.038536,-11.721707 0.33479,0.006 4.09177,3.80033 4.09177,4.13291 0,0.14092 -5.56617,5.786367 -12.36927,12.545457 -13.435016,13.34812 -14.512166,14.24785 -18.900496,15.78748 -2.66538,0.93514 -6.2112,1.07469 -8.88987,0.34986 z m 78.360326,-0.27006 c -2.54277,-0.66667 -5.18159,-2.0372 -7.55713,-3.92496 -1.84225,-1.46397 -5.21036,-4.94286 -5.25119,-5.4239 -0.01,-0.11803 1.01345,-1.0399 2.27438,-2.04861 l 2.2926,-1.83401 2.1521,2.18109 c 3.64594,3.69506 6.52069,5.22341 9.82501,5.22341 5.58188,0 10.6893,-5.05597 10.70934,-10.60146 0.003,-0.95585 -0.17245,-2.33977 -0.3909,-3.07538 -0.90411,-3.04444 -2.50898,-4.911077 -14.9765,-17.419205 l -11.87507,-11.913749 2.18847,-2.177102 2.18848,-2.177103 12.18701,12.23877 c 9.96059,10.002882 12.46782,12.665772 13.72404,14.576082 1.82507,2.77536 3.03009,6.038617 3.2362,8.763867 0.37752,4.99174 -2.54822,11.33748 -6.60586,14.32768 -4.59373,3.38525 -9.43871,4.51221 -14.12098,3.28458 z M 76.516754,91.830163 c -6.70204,-6.730612 -12.60188,-12.83279 -13.11075,-13.560394 -2.60237,-3.720999 -3.72715,-6.807867 -3.7599,-10.31875 -0.026,-2.787385 0.3658,-4.590402 1.55238,-7.14375 1.79871,-3.870579 3.92908,-6.175584 7.54224,-8.160515 2.26883,-1.246409 3.53037,-1.672563 5.94581,-2.008521 5.44179,-0.756882 10.72755,1.531017 16.11495,6.975227 l 2.61632,2.643899 -1.02648,0.88732 c -0.56456,0.488026 -1.65296,1.370647 -2.41866,1.961383 l -1.39219,1.074065 -2.75411,-2.652683 c -2.09121,-2.014199 -3.23453,-2.890121 -4.7501,-3.639154 -3.53052,-1.744879 -6.88355,-1.489382 -10.3111,0.785689 -1.80797,1.200065 -2.81524,2.430023 -3.94696,4.81956 -0.7699,1.62556 -0.85803,2.056241 -0.85803,4.192897 0,2.043559 0.10296,2.60105 0.72605,3.931189 0.39933,0.852464 1.16396,2.162152 1.69918,2.910417 0.53522,0.748263 6.31028,6.721081 12.83348,13.272931 l 11.86035,11.91246 -2.18847,2.177097 -2.18848,2.17711 z M 113.056,88.985393 98.506714,74.434298 l 2.248956,-2.248959 2.24896,-2.248958 14.54929,14.551096 14.54929,14.551096 -2.24896,2.248957 -2.24896,2.24896 z m -32.899536,-6.70558 -2.1962,-2.207665 18.60249,-18.43305 18.602496,-18.43305 8.73371,8.733711 8.7337,8.73371 -2.18157,2.181572 -2.18157,2.181571 -6.5498,-6.545873 -6.5498,-6.545871 -16.269696,16.271303 c -8.94833,8.949219 -16.33221,16.271306 -16.40863,16.271306 -0.0764,0 -1.12723,-0.993449 -2.33513,-2.207664 z m 40.170736,-0.315381 -2.24412,-2.260481 12.03855,-11.9688 c 8.46513,-8.4161 12.64462,-12.381987 14.0804,-13.360794 6.19502,-4.223322 11.57149,-4.817984 17.5373,-1.939709 4.07516,1.966109 6.48155,4.382186 8.33905,8.372621 1.27257,2.733839 1.58282,4.084759 1.58282,6.891994 0,3.781475 -1.17084,7.069399 -3.7642,10.570506 -1.33755,1.805731 -5.4715,5.953125 -5.93383,5.953125 -0.16844,0 -1.13567,-1.03754 -2.14938,-2.305643 l -1.84313,-2.305642 1.98379,-1.852642 c 3.54354,-3.309279 5.62134,-7.024904 5.62134,-10.052378 0,-2.540447 -1.72489,-6.202087 -3.7302,-7.918556 -0.58121,-0.497491 -1.85491,-1.305118 -2.83046,-1.794729 -1.65978,-0.83302 -1.94367,-0.890188 -4.41955,-0.889998 -2.85237,2.2e-4 -3.71322,0.296325 -6.74687,2.320703 -0.65485,0.43698 -6.61015,6.195949 -13.23401,12.797708 L 122.57133,84.22491 Z"
       id="path21"
       sodipodi:nodetypes="scccccccssssssssscssssscsssssssscsscsscccsssssssssssscsscsssssssscccscccccccccscccccccccsssccsssssssscssssssscc" />
  </g>
</svg>
